<svg xmlns="http://www.w3.org/2000/svg" width="512" height="512" viewBox="0 0 512 512" version="1.1">
	<path d="M 223.078 12.564 C 191.797 15.956, 171.793 21.761, 144.352 35.413 C 90.673 62.118, 57.637 95.050, 32.915 146.500 C 18.224 177.074, 11.542 206.358, 10.315 245.553 C 9.626 267.549, 10.715 280.696, 14.995 302.043 C 24.891 351.406, 47.048 393.252, 82.864 430.219 C 103.252 451.263, 120.489 463.859, 146.199 476.502 C 168.137 487.291, 190.383 494.162, 217.558 498.543 C 233.319 501.084, 266.713 501.590, 283 499.535 C 343.580 491.892, 389.826 468.770, 430.467 425.805 C 448.955 406.261, 461.838 387.380, 475.027 360.500 C 488.602 332.834, 494.098 314.422, 497.525 285.122 C 499.443 268.723, 499.426 238.428, 497.489 223.301 C 492.849 187.054, 477.480 145.905, 457.303 115.706 C 439.777 89.474, 414.520 65.010, 387.855 48.437 C 358.039 29.906, 331.712 20.045, 295.606 13.886 C 279.477 11.134, 242.483 10.460, 223.078 12.564 M 261 22.945 C 257.975 23.899, 250.325 26.705, 244 29.181 C 237.675 31.657, 230.293 34.493, 227.596 35.483 C 224.899 36.473, 220.969 38.840, 218.862 40.744 L 215.031 44.204 212.385 38.102 L 209.739 32 204.579 32 C 201.742 32, 196.889 32.659, 193.796 33.465 C 184.733 35.826, 138.320 52.884, 128.342 57.521 C 119.711 61.533, 109.441 67.774, 110.208 68.541 C 110.399 68.733, 112.276 68.502, 114.378 68.028 C 118.009 67.209, 118.107 67.250, 116.350 68.860 C 112.724 72.181, 108.388 74.677, 100.500 77.984 C 90.856 82.026, 84.821 86.344, 73.819 97.074 C 65.152 105.526, 65.285 105.546, 78.500 97.766 C 89.944 91.028, 90.793 91.511, 91.210 104.987 C 91.469 113.368, 91.660 114.197, 93 112.779 C 93.825 111.906, 98.100 106.929, 102.500 101.718 C 113.414 88.794, 117.613 86.581, 123.115 90.851 C 124.427 91.869, 126.175 92.999, 127 93.362 C 127.825 93.725, 127.419 93.816, 126.097 93.565 C 123.088 92.992, 118 95.533, 118 97.608 C 118 98.573, 120.663 100.348, 125 102.275 C 131.982 105.377, 133.598 107.479, 130.750 109.753 C 130.063 110.302, 121.955 110.970, 112.732 111.237 C 98.448 111.650, 95.671 111.988, 93.982 113.516 C 91.567 115.702, 91.473 117.803, 93.653 120.915 C 95.266 123.218, 95.557 123.259, 105.653 122.606 C 117.711 121.826, 117.977 122.099, 112.750 129.896 C 110.963 132.563, 108.733 136.152, 107.797 137.872 C 106.738 139.816, 105.312 141, 104.028 141 C 102.892 141, 96.909 139.363, 90.732 137.362 C 79.550 133.739, 79.479 133.731, 74.866 135.362 C 68.232 137.707, 67.636 137.560, 68.334 133.750 C 68.661 131.963, 69.768 125.888, 70.794 120.250 L 72.658 110 70.541 110 C 65.998 110, 59.576 114.420, 55.287 120.500 C 49.273 129.025, 33.766 160.577, 29.484 173 C 17.558 207.608, 13.238 254.616, 19.490 281.750 C 20.409 285.738, 21.537 289, 21.997 289 C 22.458 289, 23.595 287.008, 24.525 284.573 C 25.619 281.710, 26.685 280.326, 27.543 280.655 C 29.271 281.318, 31.065 289.775, 30.397 294.111 C 30.075 296.199, 30.667 299.767, 31.938 303.407 C 34.503 310.754, 34.505 312.717, 31.958 321.909 L 29.916 329.277 31.958 335.598 C 33.081 339.074, 34 342.499, 34.001 343.209 C 34.002 345.068, 49.893 376.395, 54.438 383.500 C 61.061 393.852, 74.801 411.824, 77.390 413.520 C 84.128 417.935, 89.454 412.523, 90.476 400.225 C 90.829 395.976, 91.845 390.790, 92.733 388.699 C 94.222 385.198, 94.222 384.499, 92.723 379.814 C 91.164 374.937, 91.181 374.565, 93.153 370.700 C 95.148 366.790, 95.161 366.433, 93.603 358.586 C 91.371 347.337, 91.481 346.503, 96.095 339.744 C 99.358 334.963, 100.087 333.112, 99.686 330.623 C 99.410 328.905, 98.643 324.125, 97.983 320 C 96.446 310.398, 97.301 297.368, 99.847 291.613 C 100.917 289.195, 106.519 282.034, 112.296 275.700 C 118.073 269.367, 124.731 261.341, 127.092 257.865 C 131.014 252.089, 139.969 232.224, 139.991 229.250 C 140.002 227.685, 138.963 227.718, 131.500 229.520 C 125.188 231.044, 116.336 231.450, 113.462 230.347 C 111.408 229.559, 103.129 217.083, 99.042 208.619 C 95.646 201.586, 93.921 193.715, 91.047 172.134 C 88.426 152.456, 88.356 146.729, 90.743 147.189 C 92.183 147.466, 92.879 150.136, 94.737 162.512 C 95.975 170.756, 98.073 181.832, 99.399 187.126 C 102.520 199.590, 112.883 220.796, 116.903 222.948 C 122.661 226.030, 151.741 211.629, 168.756 197.270 C 174.697 192.257, 179.372 185.132, 178.393 182.581 C 178.038 181.658, 175.217 179.623, 172.124 178.060 C 165.847 174.889, 162.447 171.704, 163.507 169.989 C 163.893 169.364, 162.325 169.814, 160.023 170.988 C 156.122 172.978, 155.672 173.015, 153.399 171.526 C 150.259 169.469, 146.090 163.684, 141.860 155.516 C 138.170 148.390, 138.486 145.763, 143.101 145.215 C 145.051 144.983, 145.949 145.783, 147.899 149.483 C 150.689 154.780, 155.118 158.810, 163.490 163.667 C 169.982 167.434, 176.207 169, 184.694 169 C 192.128 169, 198.803 170.804, 199.501 173.003 C 199.812 173.983, 201.372 175.326, 202.968 175.987 C 204.727 176.715, 206.285 178.378, 206.922 180.206 C 207.730 182.524, 208.383 183.062, 209.737 182.526 C 214.568 180.613, 215.117 180.887, 214.286 184.801 C 212.884 191.399, 213.869 200.563, 217.067 210.685 C 221.465 224.604, 225.951 234.155, 227.917 233.783 C 229.482 233.486, 229.909 232.337, 234.149 217 C 236.836 207.278, 237.636 205.303, 240.295 201.817 C 246.171 194.114, 248.695 191.681, 253.160 189.419 C 256.220 187.868, 258 186.311, 258 185.183 C 258 182.483, 260.033 181, 263.735 181 C 265.570 181, 268.207 180.256, 269.595 179.346 C 271.758 177.928, 272.308 177.893, 273.436 179.096 C 276.106 181.944, 282 191.269, 282 192.644 C 282 193.425, 282.706 195.737, 283.568 197.782 L 285.136 201.500 286.978 199.250 C 289.717 195.905, 289.876 196.447, 287.887 202.341 C 281.135 222.340, 279.554 232.705, 282.418 238.194 C 283.191 239.676, 286.451 244.142, 289.662 248.119 C 294.756 254.429, 299.240 258.485, 317.250 273.075 C 320.309 275.553, 321 276.767, 321 279.665 C 321 282.415, 322.106 284.602, 325.901 289.358 C 334.060 299.582, 334.063 299.584, 347.500 301.361 C 354.100 302.234, 361.646 303.076, 364.268 303.233 L 369.037 303.517 370.989 298.299 C 372.063 295.430, 373.228 291.938, 373.579 290.541 C 374.236 287.923, 375.952 287.031, 376.061 289.250 C 376.095 289.938, 377.224 292.750, 378.569 295.500 L 381.015 300.500 380.540 296.563 C 379.961 291.768, 381.256 290.005, 385.372 289.985 C 387.093 289.976, 389.175 289.533, 390 289 C 391.149 288.258, 390.784 288.027, 388.441 288.015 C 386.759 288.007, 384.509 287.362, 383.442 286.581 C 381.589 285.226, 381.636 285.133, 384.501 284.489 C 390.059 283.238, 391 282.869, 391 281.933 C 391 281.420, 389.116 281, 386.813 281 L 382.626 281 385.191 278.250 C 387.939 275.303, 390 271.796, 390 270.066 C 390 268.166, 387.409 268.936, 384.934 271.571 C 383.339 273.268, 381.767 273.997, 380.306 273.718 C 378.604 273.393, 377.871 273.932, 377.131 276.053 C 376.602 277.570, 375.232 279.109, 374.085 279.473 C 371.577 280.269, 371.395 282.674, 373.655 285.171 C 375.145 286.818, 375.151 287, 373.717 287 C 372.832 287, 370.896 289.258, 369.358 292.084 C 366.800 296.783, 366.361 297.128, 363.546 296.648 C 361.871 296.363, 356.675 295.605, 352 294.965 C 341.461 293.521, 340.577 293.080, 340.181 289.073 C 339.898 286.216, 340.815 284.856, 348.200 277.174 C 361.015 263.842, 371.526 249.341, 374.635 240.702 C 376.859 234.522, 376.484 226.654, 373.481 216.500 C 369.629 203.477, 368.042 191.473, 367.992 175 C 367.968 167.025, 367.520 156.096, 366.996 150.712 C 366.176 142.283, 365.618 140.305, 362.974 136.462 C 359.659 131.645, 359.108 131.346, 357.046 133.250 C 356.301 133.938, 356.436 133.387, 357.346 132.027 C 358.256 130.668, 359 128.799, 359 127.875 C 359 126.193, 354.423 124, 350.910 124 C 347.236 124, 347.664 121.626, 352.039 117.743 L 356.423 113.853 350.138 114.564 L 343.853 115.275 344.176 111.887 C 344.490 108.602, 344.670 108.473, 350.117 107.608 C 356.054 106.666, 361 107.337, 361 109.086 C 361 109.662, 362.125 111.608, 363.500 113.411 C 364.875 115.214, 366 117.482, 366 118.451 C 366 119.738, 366.473 120.019, 367.750 119.494 C 372.336 117.606, 372.794 117.791, 375.552 122.658 C 377.062 125.321, 378.998 128.625, 379.856 130 L 381.415 132.500 382.179 128.112 C 382.599 125.698, 383.176 123.491, 383.461 123.205 C 383.746 122.920, 385.799 123.508, 388.023 124.510 C 393.017 126.762, 394.375 125.794, 392.990 120.966 C 391.636 116.243, 391.571 116.351, 395.500 116.810 C 397.425 117.035, 399 116.897, 399 116.503 C 399 116.110, 397.618 114.042, 395.928 111.909 C 393.703 109.099, 393.043 107.440, 393.535 105.890 C 393.908 104.713, 393.807 103.469, 393.309 103.125 C 392.811 102.781, 391.214 100.439, 389.760 97.920 C 388.305 95.401, 386.340 92.701, 385.391 91.920 C 383.802 90.611, 383.719 90.773, 384.327 94 C 384.690 95.925, 385.256 98.678, 385.585 100.119 C 386.084 102.305, 385.776 102.839, 383.718 103.356 C 382.254 103.723, 380.752 105.184, 380.019 106.954 C 378.378 110.916, 375.863 113.059, 375.193 111.067 C 374.928 110.278, 373.089 108.121, 371.106 106.273 L 367.500 102.912 370.500 100.461 C 372.150 99.113, 373.754 98.008, 374.065 98.005 C 375.003 97.997, 378 91.076, 378 88.916 C 378 83.216, 372.205 77.386, 355.146 65.923 C 348.351 61.357, 342.551 56.994, 342.257 56.228 C 341.963 55.461, 342.652 53.904, 343.788 52.768 L 345.854 50.702 356.677 53.533 C 369.676 56.933, 380.797 61.774, 386.675 66.590 C 392.252 71.160, 392.279 69.208, 386.714 63.724 C 383.821 60.873, 379.189 58.065, 372.464 55.087 C 325.664 34.362, 314.488 30.133, 311.185 31.901 C 310.056 32.505, 308.764 32.984, 308.316 32.965 C 307.867 32.945, 308.573 32.334, 309.885 31.607 C 311.197 30.880, 311.844 30.022, 311.323 29.700 C 309.866 28.799, 291.809 25.318, 279 23.469 C 272.675 22.555, 267.275 21.674, 267 21.509 C 266.725 21.345, 264.025 21.991, 261 22.945 M 302 35 C 301.175 35.533, 300.950 35.969, 301.500 35.969 C 302.050 35.969, 303.175 35.533, 304 35 C 304.825 34.467, 305.050 34.031, 304.500 34.031 C 303.950 34.031, 302.825 34.467, 302 35 M 183 41.970 C 177.225 44.097, 169.350 47.051, 165.500 48.535 C 161.650 50.019, 153.100 52.747, 146.500 54.596 C 139.900 56.446, 131.666 59.396, 128.201 61.154 C 121.146 64.732, 118.739 66.987, 124.659 64.470 C 126.772 63.572, 129.400 62.662, 130.500 62.447 C 132.281 62.099, 132.241 62.255, 130.128 63.875 C 128.016 65.494, 127.945 65.765, 129.482 66.355 C 130.494 66.743, 130.971 67.633, 130.635 68.508 C 130.320 69.329, 130.266 70, 130.515 70 C 130.764 70, 134.394 67.541, 138.583 64.536 C 142.771 61.531, 147.166 58.772, 148.349 58.406 C 154.439 56.521, 189.878 42.584, 193.875 40.502 C 201.304 36.633, 195.289 37.445, 183 41.970 M 290.104 39.893 C 287.987 41.021, 287.140 41.969, 287.854 42.410 C 288.484 42.799, 289 42.723, 289 42.240 C 289 41.758, 290.462 40.635, 292.250 39.745 C 294.038 38.856, 295.050 38.118, 294.500 38.106 C 293.950 38.094, 291.972 38.898, 290.104 39.893 M 290 43.364 C 290 43.639, 291.350 44.825, 293 46 C 294.650 47.175, 296 47.911, 296 47.636 C 296 47.361, 294.650 46.175, 293 45 C 291.350 43.825, 290 43.089, 290 43.364 M 152.500 61.464 C 148.556 63.270, 149.448 63.301, 155 61.552 C 157.475 60.772, 158.600 60.124, 157.500 60.112 C 156.400 60.100, 154.150 60.708, 152.500 61.464 M 162.083 66.261 C 162.313 66.404, 163.625 67.417, 165 68.511 L 167.500 70.500 165.595 68.250 C 164.547 67.013, 163.235 66, 162.678 66 C 162.122 66, 161.854 66.117, 162.083 66.261 M 172 74.393 C 172 74.609, 172.698 75.054, 173.552 75.382 C 174.442 75.723, 174.843 75.555, 174.493 74.989 C 173.906 74.038, 172 73.583, 172 74.393 M 289.924 77.750 L 287.500 80.500 290.250 78.076 C 291.762 76.742, 293 75.505, 293 75.326 C 293 74.541, 292.190 75.180, 289.924 77.750 M 326.250 79.579 C 328.505 82.257, 328.458 82.849, 325.750 85.936 L 323.500 88.500 326.250 86.076 C 329.587 83.133, 329.681 81.887, 326.750 79.405 C 324.502 77.502, 324.502 77.502, 326.250 79.579 M 284.872 81.750 C 283.629 83.336, 283.664 83.371, 285.250 82.128 C 286.212 81.373, 287 80.585, 287 80.378 C 287 79.555, 286.179 80.084, 284.872 81.750 M 347.872 89.750 C 346.629 91.336, 346.664 91.371, 348.250 90.128 C 349.916 88.821, 350.445 88, 349.622 88 C 349.415 88, 348.627 88.787, 347.872 89.750 M 270.583 92.542 L 266.667 96 271.583 95.850 C 274.498 95.761, 275.380 95.531, 273.750 95.284 C 270.432 94.781, 270.363 94.307, 273.174 91.314 C 276.313 87.974, 275.113 88.542, 270.583 92.542 M 342.872 96.750 C 341.629 98.336, 341.664 98.371, 343.250 97.128 C 344.916 95.821, 345.445 95, 344.622 95 C 344.415 95, 343.627 95.787, 342.872 96.750 M 153.475 99.212 C 151.069 102.072, 150.838 102.979, 151.377 107.462 C 151.710 110.233, 151.987 115.088, 151.991 118.250 L 152 124 155.465 124 C 159.567 124, 160.477 122.669, 161.488 115.185 C 162.089 110.730, 161.920 109.662, 160.440 108.580 C 158.613 107.244, 158.819 106.079, 161.545 102.344 C 163.009 100.339, 162.962 100.042, 160.871 98.094 C 157.834 95.265, 156.645 95.445, 153.475 99.212 M 425.723 109.055 C 425.317 117.596, 424.522 122.476, 422.589 128.288 C 421.165 132.572, 420 138.117, 420 140.612 C 420 147.942, 414.350 163.004, 407.948 172.737 L 405.819 175.975 410.050 174.482 C 422.673 170.029, 429 161.944, 429 150.269 C 429 145.219, 429.289 144.347, 431.250 143.487 C 432.873 142.775, 434.177 140.442, 435.930 135.115 C 438.132 128.422, 438.258 127.132, 437.267 121.350 C 436.124 114.675, 431.715 104.230, 428.279 100.055 L 426.267 97.611 425.723 109.055 M 336.999 105.001 C 335.824 106.652, 332.377 110.027, 329.339 112.501 C 326.302 114.976, 324.340 117, 324.981 117 C 326.378 117, 335.405 108.616, 338.169 104.750 C 339.251 103.237, 339.911 102, 339.636 102 C 339.361 102, 338.175 103.351, 336.999 105.001 M 74 140.982 C 71.624 142.824, 71.610 142.892, 73.717 142.352 C 74.937 142.040, 76.454 141.157, 77.090 140.392 C 78.766 138.372, 76.910 138.727, 74 140.982 M 348.872 143.750 C 347.629 145.336, 347.664 145.371, 349.250 144.128 C 350.212 143.373, 351 142.585, 351 142.378 C 351 141.555, 350.179 142.084, 348.872 143.750 M 216.248 148.758 C 215.009 150.816, 213.231 153.625, 212.296 155 C 210.087 158.247, 210.850 157.547, 215.768 151.811 C 219.742 147.177, 221 146.744, 221 150.012 C 221 152.266, 224.570 155.379, 226.364 154.690 C 227.221 154.362, 227.994 154.869, 228.275 155.944 C 228.588 157.142, 229.689 157.750, 231.545 157.750 C 233.414 157.750, 234.979 158.623, 236.258 160.380 C 237.312 161.827, 238.585 162.756, 239.087 162.446 C 239.589 162.136, 240 162.370, 240 162.966 C 240 164.299, 243.208 165.570, 248.500 166.333 C 257.187 167.586, 258.444 167.724, 257 167.263 C 247.862 164.346, 235.285 157.426, 225.525 149.945 C 221.976 147.225, 218.944 145.003, 218.786 145.008 C 218.629 145.012, 217.487 146.699, 216.248 148.758 M 432.521 147.750 C 437.440 159.465, 439.915 170.042, 439.948 179.500 C 439.990 191.576, 433.045 210.517, 425.521 218.845 C 423.457 221.130, 422.157 222.996, 422.634 222.990 C 423.110 222.985, 426.526 220.708, 430.224 217.930 C 442.609 208.628, 450.372 197.102, 451.677 186.077 C 452.008 183.285, 452.623 181, 453.044 181 C 454.253 181, 459.051 189.723, 462.660 198.483 L 465.963 206.500 465.967 199.500 C 465.977 179.753, 455.586 160.181, 439.595 149.824 C 433.082 145.606, 431.415 145.117, 432.521 147.750 M 100.070 152 C 99.961 155.817, 103.149 171.368, 104.272 172.500 C 105.345 173.581, 105.310 173.359, 102.091 158.500 C 101.018 153.550, 100.109 150.625, 100.070 152 M 222.500 152 C 222.840 152.550, 223.568 153, 224.118 153 C 224.668 153, 224.840 152.550, 224.500 152 C 224.160 151.450, 223.432 151, 222.882 151 C 222.332 151, 222.160 151.450, 222.500 152 M 295.500 161.910 C 300.328 162.707, 302 163.645, 302 165.559 C 302 166.352, 302.450 167, 303 167 C 304.805 167, 304.048 165.183, 301.365 163.073 C 299.693 161.757, 297.410 161.046, 295.115 161.125 L 291.500 161.250 295.500 161.910 M 261.750 168.706 C 262.988 168.944, 265.012 168.944, 266.250 168.706 C 267.488 168.467, 266.475 168.272, 264 168.272 C 261.525 168.272, 260.512 168.467, 261.750 168.706 M 301.195 181.500 C 301.215 183.150, 301.439 183.704, 301.693 182.731 C 301.947 181.758, 301.930 180.408, 301.656 179.731 C 301.382 179.054, 301.175 179.850, 301.195 181.500 M 303 187.337 C 303 188.854, 308.151 198.151, 310.034 200.034 C 311.115 201.115, 311.764 202, 311.476 202 C 311.187 202, 312.279 203.463, 313.902 205.250 C 320.092 212.070, 321.998 214.541, 321.999 215.750 C 321.999 216.438, 322.395 217, 322.879 217 C 323.362 217, 324.303 218.318, 324.970 219.928 C 325.637 221.539, 326.817 223.100, 327.592 223.397 C 328.366 223.694, 329.061 225.189, 329.136 226.719 C 329.247 228.972, 329.353 229.086, 329.697 227.318 C 330.303 224.200, 328.213 220.675, 318.060 207.685 C 313.124 201.370, 307.716 194.044, 306.042 191.406 C 304.369 188.767, 303 186.936, 303 187.337 M 375.942 197.216 C 374.719 201.757, 375.681 209.068, 377.585 209.698 C 378.191 209.898, 379.223 207.583, 379.924 204.450 C 380.910 200.041, 380.920 198.221, 379.968 195.922 C 378.310 191.921, 377.278 192.253, 375.942 197.216 M 295.158 211 C 295.158 212.375, 295.385 212.938, 295.662 212.250 C 295.940 211.563, 295.940 210.438, 295.662 209.750 C 295.385 209.063, 295.158 209.625, 295.158 211 M 311.177 210.667 C 311.663 213.176, 314 213.520, 314 211.083 C 314 209.855, 313.354 209, 312.427 209 C 311.495 209, 310.985 209.680, 311.177 210.667 M 83.524 212.970 C 88.373 218.623, 103.111 233.222, 103.538 232.795 C 103.755 232.578, 98.671 227.248, 92.240 220.950 C 85.809 214.653, 81.887 211.061, 83.524 212.970 M 315 213.965 C 315 214.495, 315.961 215.444, 317.135 216.072 C 318.841 216.985, 318.992 217.391, 317.885 218.092 C 316.887 218.724, 316.849 218.974, 317.750 218.985 C 318.438 218.993, 318.985 219.563, 318.967 220.250 C 318.947 220.980, 318.205 220.669, 317.182 219.500 C 314.788 216.767, 313 216.581, 313 219.066 C 313 220.202, 312.529 222.011, 311.954 223.086 C 310.968 224.929, 310.618 224.797, 305.870 220.794 C 301.361 216.991, 300.731 216.729, 299.855 218.294 C 299.317 219.256, 298.455 219.781, 297.939 219.462 C 297.422 219.143, 297 220.259, 297 221.941 C 297 225.951, 297.765 225.806, 299.585 221.451 L 301.068 217.902 304.896 221.201 C 307.002 223.015, 310.880 226.877, 313.513 229.783 C 316.147 232.689, 318.793 234.902, 319.393 234.702 C 319.993 234.502, 320.938 235.224, 321.492 236.307 C 322.981 239.215, 324.088 238.697, 326.735 233.855 C 328.044 231.460, 328.527 230.341, 327.808 231.369 C 324.510 236.080, 323.111 237.439, 322.344 236.675 C 321.889 236.221, 322.310 235.406, 323.279 234.864 C 324.249 234.321, 324.752 233.408, 324.398 232.835 C 323.345 231.132, 323.083 223, 324.080 223 C 324.586 223, 325 222.564, 325 222.031 C 325 221.499, 324.358 221.309, 323.573 221.610 C 322.563 221.998, 322.290 221.607, 322.640 220.270 C 322.988 218.940, 322.367 218.033, 320.539 217.200 C 319.112 216.549, 317.683 215.338, 317.365 214.509 C 316.725 212.840, 315 212.444, 315 213.965 M 383.255 217.662 C 381.160 222.347, 381.024 232.508, 383.010 236 C 384.367 238.385, 384.481 238.132, 385.495 230.500 C 386.518 222.798, 386.588 222.647, 387.362 226.453 C 387.805 228.628, 388.981 232.003, 389.976 233.953 C 392.326 238.559, 392.328 239.567, 389.988 239.193 C 388.661 238.981, 387.881 239.625, 387.466 241.279 C 386.676 244.429, 391.876 253.500, 394.472 253.500 C 397.457 253.500, 400.348 246.655, 400.429 239.394 C 400.509 232.335, 398.725 229.007, 396.646 232.337 C 393.660 237.120, 393.501 237.066, 393.447 231.250 C 393.406 226.845, 392.703 224.224, 390.447 220.064 C 388.826 217.076, 386.931 214.449, 386.236 214.227 C 385.525 214.001, 384.220 215.505, 383.255 217.662 M 309.200 216.200 C 307.643 217.757, 307.670 219, 309.259 219 C 309.952 219, 311.081 218.100, 311.768 217 C 312.778 215.383, 312.767 215, 311.708 215 C 310.989 215, 309.860 215.540, 309.200 216.200 M 312 225.750 C 312 226.254, 313.585 228.429, 315.523 230.583 C 318.803 234.231, 319.026 234.328, 318.772 232 C 318.589 230.323, 317.923 229.546, 316.750 229.639 C 315.787 229.715, 314.944 229.378, 314.875 228.889 C 314.806 228.400, 314.694 227.475, 314.625 226.833 C 314.476 225.445, 312 224.423, 312 225.750 M 238.607 231.582 C 238.273 232.452, 238 235.073, 238 237.407 C 238 240.591, 238.598 242.213, 240.395 243.901 C 243.172 246.510, 244.347 245.510, 244.209 240.655 C 244.116 237.368, 241.174 230, 239.955 230 C 239.547 230, 238.941 230.712, 238.607 231.582 M 271.015 241.191 C 271.040 257.100, 274.136 267.046, 288.075 296 C 295.439 311.297, 298.717 319.418, 300.992 328 C 306.542 348.938, 313.396 363.646, 324.635 378.734 C 332.995 389.958, 336.362 389.906, 360.106 378.186 C 369.123 373.736, 378.232 369.647, 380.350 369.100 C 384.073 368.139, 384.359 368.255, 389.051 372.644 C 393.570 376.871, 394.045 377.082, 395.996 375.715 C 398.404 374.029, 418.635 349.122, 424.311 340.856 C 427.797 335.778, 428.284 334.210, 430.038 322.403 C 431.994 309.230, 432.503 301, 431.362 301 C 431.011 301, 428.771 302.800, 426.384 305 C 421.471 309.529, 420.452 309.835, 419.712 307.005 C 418.871 303.792, 416.502 303.646, 408.773 306.328 C 390.488 312.676, 385.612 314.957, 381.068 319.289 C 375.839 324.273, 361.504 334.049, 352.103 339.039 C 348.344 341.035, 344.943 343.686, 343.857 345.468 C 341.774 348.884, 341.484 354.600, 343.099 360.417 L 344.186 364.334 337.343 370.621 C 333.579 374.078, 330.275 376.928, 330 376.953 C 329.725 376.977, 329.486 374.404, 329.469 371.235 C 329.434 364.697, 328.406 361.809, 322.312 351.116 C 317.503 342.677, 317.470 342.007, 321.254 329.861 C 323.076 324.012, 323.173 322.689, 322.068 318.744 C 320.475 313.053, 318.652 310.309, 311.665 303.086 C 303.870 295.027, 296.060 282.173, 291.482 269.868 C 289.361 264.165, 286.359 256.644, 284.811 253.153 C 282.133 247.114, 273.628 233.506, 271.840 232.401 C 271.378 232.116, 271.007 236.071, 271.015 241.191 M 117.606 250.848 L 115.712 253.500 118.050 251.278 C 119.337 250.056, 120.189 248.862, 119.944 248.626 C 119.700 248.389, 118.648 249.389, 117.606 250.848 M 407.750 259.579 C 406.531 260.805, 406.891 263.748, 408.450 265.308 C 409.248 266.105, 412.006 267.074, 414.578 267.459 C 421.515 268.500, 422.417 268.974, 420.342 270.492 C 418.455 271.871, 418.570 271.940, 425.238 273.423 C 427.148 273.848, 428.618 275.290, 430.099 278.194 C 431.990 281.901, 432.335 282.153, 433.258 280.504 C 434.104 278.992, 433.717 278.136, 431.147 275.840 C 428.178 273.188, 427.081 270.980, 428.750 271.016 C 431.674 271.081, 437.962 276.375, 441.794 282 C 446.476 288.873, 448 290.224, 448 287.500 C 448 286.583, 448.534 286.011, 449.188 286.229 C 450.296 286.599, 454.335 297.708, 457.102 308 L 458.312 312.500 459.228 308.500 C 459.732 306.300, 459.985 300.225, 459.791 295 C 459.490 286.924, 458.977 284.519, 456.366 278.953 C 452.314 270.313, 448.096 265.686, 441.182 262.290 C 435.970 259.731, 434.383 259.472, 422 259.162 C 414.575 258.976, 408.163 259.164, 407.750 259.579 M 106.872 261.750 C 105.629 263.336, 105.664 263.371, 107.250 262.128 C 108.916 260.821, 109.445 260, 108.622 260 C 108.415 260, 107.627 260.788, 106.872 261.750 M 72.783 279.750 C 67.929 285.316, 67.692 291.683, 72.094 298.329 C 73.796 300.898, 75.398 303, 75.653 303 C 75.909 303, 75.937 302.663, 75.715 302.250 C 75.493 301.837, 75.859 296.775, 76.528 291 C 77.338 284.006, 77.412 280.083, 76.750 279.250 C 75.413 277.571, 74.595 277.674, 72.783 279.750 M 150.531 282.354 C 148.741 283.663, 148.754 283.860, 150.930 288.355 C 156.462 299.784, 175.300 308.038, 195.708 307.976 L 203.500 307.953 194.690 304.002 C 184.882 299.603, 182.330 297.976, 173.167 290.277 C 162.768 281.540, 155.246 278.906, 150.531 282.354 M 479.750 295.566 C 477.464 303.490, 477.597 305.432, 480.101 300.686 C 481.346 298.327, 481.996 295.467, 481.807 293.186 C 481.507 289.583, 481.461 289.637, 479.750 295.566 M 59 304.561 C 61.165 307.348, 62.041 308.157, 66.500 311.486 C 72.103 315.669, 76 319.514, 76 320.858 C 76 321.486, 76.450 322, 77 322 C 77.550 322, 78 322.873, 78 323.941 C 78 325.009, 78.498 326.190, 79.107 326.566 C 79.865 327.035, 79.989 326.501, 79.499 324.875 C 78.116 320.288, 75.420 317.190, 66.500 309.942 C 61.550 305.920, 58.175 303.499, 59 304.561 M 313.079 317.583 C 313.127 318.748, 313.364 318.985, 313.683 318.188 C 313.972 317.466, 313.936 316.603, 313.604 316.271 C 313.272 315.939, 313.036 316.529, 313.079 317.583 M 117.102 322.537 C 109.177 331.562, 105.619 343.107, 105.556 360 C 105.503 374.283, 106.745 378.500, 111.004 378.500 C 113.668 378.500, 115.035 376.384, 118.981 366.157 C 123.600 354.182, 125.133 319, 121.036 319 C 120.580 319, 118.810 320.592, 117.102 322.537 M 313.310 325.500 C 313.315 328.800, 313.502 330.029, 313.725 328.232 C 313.947 326.435, 313.943 323.735, 313.715 322.232 C 313.486 320.729, 313.304 322.200, 313.310 325.500 M 452.643 328.289 C 448.496 337.056, 447 344.412, 447 356.043 C 447 361.886, 447.296 366.963, 447.658 367.325 C 448.020 367.687, 448.920 367.481, 449.658 366.869 C 452.386 364.605, 450.863 367.389, 446.097 373.379 C 443.400 376.768, 436.028 384.481, 429.715 390.520 L 418.236 401.500 416.028 410.662 C 413.023 423.131, 413.356 424.222, 418.782 419.685 C 424.213 415.144, 429.160 409.008, 441.508 391.500 C 460.999 363.863, 460.275 365.128, 459.585 359.927 C 459.247 357.385, 458.554 348.718, 458.044 340.667 C 456.886 322.395, 456.188 320.796, 452.643 328.289 M 145.477 340.750 C 145.122 343.363, 144.594 346.400, 144.304 347.500 C 143.945 348.857, 144.105 349.179, 144.802 348.500 C 145.897 347.434, 147.611 336, 146.676 336 C 146.372 336, 145.832 338.137, 145.477 340.750 M 221.481 340 C 220.244 342.346, 219.490 346.386, 219.195 352.250 C 218.953 357.063, 218.631 361, 218.480 361 C 218.328 361, 215.346 359.267, 211.852 357.150 C 203.481 352.076, 196.830 349.190, 189.500 347.452 C 180.158 345.237, 178.960 345.569, 184.054 348.958 C 186.499 350.584, 192.272 354.822, 196.882 358.374 C 211.685 369.780, 230.308 378.182, 246 380.534 L 250.500 381.208 246.178 377.464 C 236.596 369.165, 227.336 354.054, 224.666 342.362 L 223.327 336.500 221.481 340 M 137.500 351 C 137.116 353.274, 137.011 355.345, 137.268 355.601 C 137.524 355.857, 138.034 354.192, 138.400 351.900 C 138.766 349.608, 138.871 347.538, 138.632 347.299 C 138.394 347.060, 137.884 348.726, 137.500 351 M 40 348.378 C 40 348.585, 40.788 349.373, 41.750 350.128 C 43.336 351.371, 43.371 351.336, 42.128 349.750 C 40.821 348.084, 40 347.555, 40 348.378 M 75.137 353 C 75.123 353.825, 75.961 356.525, 77 359 C 78.095 361.610, 78.901 362.660, 78.918 361.500 C 78.934 360.400, 78.096 357.700, 77.055 355.500 C 76.014 353.300, 75.151 352.175, 75.137 353 M 46.071 359.230 C 45.956 360.414, 49.214 368.120, 49.646 367.687 C 49.864 367.470, 49.164 365.313, 48.092 362.896 C 47.019 360.478, 46.109 358.828, 46.071 359.230 M 53.467 375.937 C 54.302 377.552, 55.440 379.154, 55.995 379.497 C 56.549 379.840, 56.058 378.518, 54.903 376.560 C 52.370 372.267, 51.338 371.819, 53.467 375.937 M 65.020 381.524 C 65.716 382.362, 66.491 382.842, 66.743 382.591 C 67.436 381.897, 66.027 380, 64.819 380 C 64.155 380, 64.231 380.574, 65.020 381.524 M 64.813 384.683 C 65.534 384.972, 66.397 384.936, 66.729 384.604 C 67.061 384.272, 66.471 384.036, 65.417 384.079 C 64.252 384.127, 64.015 384.364, 64.813 384.683 M 120 440.965 C 148.518 466.098, 171.586 478.413, 203.117 485.341 C 224.926 490.132, 225.203 489.995, 210 481.930 C 190.555 471.614, 184.504 467.387, 171.478 455.021 C 165.092 448.959, 159.395 444, 158.816 444 C 158.112 444, 157.998 446.486, 158.471 451.537 L 159.178 459.075 151.839 454.327 C 144.943 449.865, 124.522 440.060, 119 438.560 C 116.731 437.943, 116.823 438.165, 120 440.965 M 368 448.551 C 347.805 453.766, 341.260 456.655, 310.555 473.906 C 301.785 478.833, 290.865 484.312, 286.288 486.082 C 281.711 487.852, 278.178 489.512, 278.438 489.771 C 279.634 490.967, 306.960 484.737, 321.554 479.941 C 326.533 478.305, 335.450 474.273, 341.369 470.981 C 351.324 465.445, 379 447.382, 379 446.421 C 379 445.766, 378.142 445.933, 368 448.551 M 239.736 466.474 C 236.015 467.247, 228.365 469.321, 222.736 471.084 C 217.106 472.847, 211.873 474.460, 211.107 474.668 C 208.711 475.320, 210.344 475.910, 220.069 477.908 C 232.548 480.471, 249.496 481.992, 265.622 481.997 C 276.203 481.999, 280.584 481.533, 288.251 479.588 C 293.479 478.262, 299.254 476.403, 301.082 475.458 L 304.406 473.739 297.953 472.031 C 294.404 471.093, 287.900 469.300, 283.500 468.049 C 273.278 465.141, 250.161 464.309, 239.736 466.474" stroke="none" fill="black" fill-rule="evenodd"/>
</svg>